# xmcd CD database file
#
# Track frame offsets:
#	150
#	14205
#	29040
#	42889
#	56742
#	69910
#	82737
#	98427
#	112107
#	124520
#	139675
#	153787
#	168400
#	182117
#	197425
#	212145
#	226995
#	240045
#
# Disc length: 3404 seconds
#
# Revision: 2
# Processed by: cddbd v1.5PL3 Copyright (c) Steve Scherf et al.
# Submitted via: CDex 1.51
#
DISCID=e40d4a12
DTITLE=Louis Armstrong - Heebie Jeebies - Original Recordings 1925-1930
DYEAR=2001
DGENRE=Jazz
TTITLE0=Cornet Chop Suey [Armstrong]
TTITLE1=West End Blues [Oliver-C. Williams]
TTITLE2=Heebie Jeebies [Atkins]
TTITLE3=Potato Head Blues [Armstrong]
TTITLE4=No (No, Papa, No) [Spivey]
TTITLE5=Gut Bucket Blues [Armstrong]
TTITLE6=Knockin' A Jug [Armstrong-Condon]
TTITLE7=S. O. L. Blues [Armstrong]
TTITLE8=Weather Bird [Armstrong]
TTITLE9=Save It Pretty Mama [Redman]
TTITLE10=Fireworks [Williams]
TTITLE11=A Monday Date [Hines]
TTITLE12=Struttin' With Some Barbecue [Hardin]
TTITLE13=Squeeze Me [Williams-Waller]
TTITLE14=Willie The Weeper [Rymal-Melrose-Bloom]
TTITLE15=Sweethearts On Parade [Newman-Lombardo]
TTITLE16=Muggles [Armstrong-Hines]
TTITLE17=Hear Me Talkin' To Ya? [Armstrong-Redman]
EXTD=YEAR: 2001
EXTT0=
EXTT1=
EXTT2=
EXTT3=
EXTT4=
EXTT5=
EXTT6=
EXTT7=
EXTT8=
EXTT9=
EXTT10=
EXTT11=
EXTT12=
EXTT13=
EXTT14=
EXTT15=
EXTT16=
EXTT17=
PLAYORDER=
